<?xml version="1.0" encoding="UTF-8"?> <svg xmlns="http://www.w3.org/2000/svg" width="202" height="197" viewBox="0 0 202 197" fill="none"> <path d="M197.793 108.242L197.643 109.683C199.505 109.811 201.071 108.245 201.319 105.867C201.565 103.513 200.389 101.521 198.324 101.305C196.667 101.132 195.557 102.23 194.803 104.094L194.213 105.562C193.717 106.821 193.141 107.926 191.916 107.798C190.571 107.658 189.818 106.268 189.996 104.563C190.149 103.098 190.933 101.869 192.338 101.894L192.499 100.357C190.466 100.29 188.927 101.78 188.651 104.422C188.355 107.256 189.748 109.029 191.741 109.237C194.047 109.478 195.02 107.37 195.489 106.132L195.956 104.918C196.291 104.031 196.924 102.616 198.245 102.754C199.422 102.877 200.174 104.048 200.003 105.681C199.848 107.17 199.021 108.225 197.793 108.242Z" fill="#EAEAEA"></path> <path d="M187.136 115.923C186.667 117.921 187.58 119.525 189.124 120.135L189.449 118.748C188.523 118.258 188.128 117.297 188.382 116.215C188.768 114.57 190.379 113.832 192.472 114.323C194.517 114.802 195.603 116.198 195.223 117.82C194.936 119.043 194.013 119.595 193.14 119.614L192.815 121.001C194.563 121.163 196.028 119.993 196.474 118.089C197.048 115.644 195.501 113.57 192.75 112.925C190.047 112.29 187.731 113.384 187.136 115.923Z" fill="#EAEAEA"></path> <path d="M185.744 122.741L185.289 124.091L190.85 125.966C192.04 126.367 192.593 127.598 192.161 128.88C192.04 129.24 191.846 129.589 191.792 129.672L193.165 130.135C193.228 129.985 193.359 129.634 193.427 129.434C193.782 128.381 193.495 127.265 192.734 126.652L192.765 126.56L194.092 127.008L194.531 125.703L185.744 122.741Z" fill="#EAEAEA"></path> <path d="M181.675 133.506C180.586 135.769 181.571 138.12 184.161 139.366C186.772 140.622 189.224 139.927 190.313 137.664C191.402 135.401 190.416 133.05 187.805 131.794C185.216 130.548 182.764 131.243 181.675 133.506ZM182.828 134.061C183.655 132.342 185.512 132.271 187.187 133.078C188.863 133.884 189.987 135.39 189.16 137.109C188.332 138.828 186.454 138.888 184.779 138.082C183.103 137.276 182.001 135.78 182.828 134.061Z" fill="#EAEAEA"></path> <path d="M188.36 148.081L189.076 146.849L178.385 140.639L177.669 141.871L188.36 148.081Z" fill="#EAEAEA"></path> <path d="M185.113 153.431L185.905 152.246L175.622 145.381L174.831 146.566L185.113 153.431Z" fill="#EAEAEA"></path> <path d="M166.715 157.051C165.474 158.337 165.855 159.543 166.002 160.121L165.885 160.242L164.859 159.253L163.904 160.244L172.804 168.826L173.792 167.801L170.507 164.633L170.591 164.546C171.157 164.655 172.342 165.026 173.599 163.723C175.225 162.037 175.009 159.581 172.906 157.553C170.785 155.508 168.324 155.382 166.715 157.051ZM167.502 158.078C168.742 156.792 170.509 157.221 171.935 158.595C173.342 159.953 173.817 161.652 172.56 162.956C171.353 164.208 169.708 163.896 168.213 162.454C166.701 160.996 166.312 159.312 167.502 158.078Z" fill="#EAEAEA"></path> <path d="M158.005 165.611C156.035 167.169 155.892 169.714 157.674 171.968C159.472 174.241 161.981 174.689 163.951 173.131C165.921 171.574 166.063 169.029 164.266 166.756C162.484 164.502 159.975 164.054 158.005 165.611ZM158.799 166.615C160.295 165.432 161.995 166.181 163.149 167.64C164.302 169.098 164.653 170.944 163.157 172.127C161.66 173.311 159.945 172.543 158.792 171.084C157.639 169.626 157.302 167.798 158.799 166.615Z" fill="#EAEAEA"></path> <path d="M149.877 172.351L148.651 173.027L150.315 180.245L150.189 180.315L144.972 175.057L143.745 175.733L145.75 185.217L147.061 184.494L145.399 177.331L145.483 177.284L150.613 182.535L151.946 181.8L150.25 174.627L150.335 174.58L155.519 179.829L156.83 179.106L149.877 172.351Z" fill="#EAEAEA"></path> <path d="M139.338 184.365C139.924 185.873 139.322 187.091 138.05 187.585C136.817 188.063 135.756 187.549 135.23 186.192L133.133 180.79L131.805 181.305L133.937 186.798C134.793 189.004 136.38 189.606 138.13 188.926C139.436 188.42 140.019 187.52 140.083 186.485L140.196 186.441L140.72 187.792L142.003 187.294L138.648 178.649L137.32 179.165L139.338 184.365Z" fill="#EAEAEA"></path> <path d="M121.543 193.999L123.478 193.576L123.952 195.746L125.344 195.442L124.869 193.272L126.238 192.973L125.98 191.793L124.612 192.092L123.374 186.43C123.029 184.85 121.59 184.373 120.41 184.631C119.891 184.745 119.582 184.911 119.408 185.023L119.965 186.212C120.077 186.162 120.256 186.074 120.563 186.007C121.176 185.873 121.807 185.933 122.065 187.112L123.22 192.396L121.285 192.819L121.543 193.999Z" fill="#EAEAEA"></path> <path d="M112.046 186.133C109.545 186.356 108.03 188.406 108.285 191.268C108.541 194.154 110.394 195.905 112.895 195.682C115.397 195.46 116.912 193.41 116.655 190.524C116.4 187.661 114.548 185.911 112.046 186.133ZM112.16 187.408C114.06 187.239 115.071 188.798 115.236 190.65C115.4 192.502 114.682 194.239 112.782 194.408C110.882 194.577 109.868 192.994 109.704 191.142C109.539 189.29 110.259 187.577 112.16 187.408Z" fill="#EAEAEA"></path> <path d="M94.3432 186.639C92.4692 186.451 91.0054 187.25 90.4328 188.6L91.7636 189.122C92.2207 188.197 93.1039 187.801 94.2152 187.913C95.879 188.08 96.9181 189.271 96.7854 191.253L90.088 190.58L90.0276 191.18C89.682 194.616 91.6059 195.999 93.528 196.192C96.0267 196.444 97.8827 194.64 98.1679 191.805C98.4531 188.97 97.0102 186.907 94.3432 186.639ZM96.6622 192.479C96.4217 193.905 95.2779 195.082 93.6561 194.919C92.1184 194.764 91.2493 193.512 91.4064 191.95L96.6622 192.479Z" fill="#EAEAEA"></path> <path d="M84.2665 195.091L85.8679 195.454L84.0193 190.281L87.917 186.41L86.3156 186.048L83.3538 189.066L81.9822 185.066L80.3808 184.703L82.2765 189.886L78.3317 193.746L79.9331 194.109L82.9376 190.903L84.2665 195.091Z" fill="#EAEAEA"></path> <path d="M77.8372 180.801L76.5014 180.305L74.7965 184.901L74.6833 184.859C74.5654 184.274 74.3857 183.023 72.7103 182.402C70.5368 181.595 68.3733 182.776 67.3487 185.538C66.3325 188.277 67.2027 190.583 69.3988 191.398C71.0968 192.028 72.0039 191.18 72.4662 190.836L72.6246 190.895L72.1123 192.276L73.4028 192.755L77.8372 180.801ZM73.7022 187.921C72.9799 189.868 71.6325 190.862 70.0024 190.257C68.3044 189.627 67.9958 187.89 68.676 186.056C69.3647 184.2 70.7709 183.047 72.4463 183.669C74.0538 184.265 74.4328 185.951 73.7022 187.921Z" fill="#EAEAEA"></path> <path d="M59.4132 190.643L60.7083 191.237L65.8619 179.999L64.5669 179.405L59.4132 190.643Z" fill="#EAEAEA"></path> <path d="M57.3086 175.623C55.1702 174.306 52.7305 175.044 51.2237 177.491C49.7043 179.959 50.1433 182.469 52.2817 183.786C54.4201 185.103 56.8597 184.365 58.3792 181.898C59.886 179.451 59.447 176.94 57.3086 175.623ZM56.6375 176.713C58.2619 177.713 58.141 179.567 57.166 181.151C56.191 182.734 54.5771 183.697 52.9528 182.696C51.3284 181.696 51.4619 179.822 52.4369 178.238C53.4119 176.655 55.0131 175.713 56.6375 176.713Z" fill="#EAEAEA"></path> <path d="M50.4927 171.643L49.356 170.784L45.8182 175.466C45.0611 176.468 43.718 176.603 42.6392 175.787C42.3357 175.558 42.0664 175.264 42.0039 175.186L41.1303 176.342C41.2531 176.45 41.5444 176.685 41.713 176.813C42.5992 177.482 43.7483 177.564 44.5713 177.036L44.6483 177.094L43.8039 178.211L44.9021 179.041L50.4927 171.643Z" fill="#EAEAEA"></path> <path d="M41.4426 164.212C40.0821 162.91 38.4365 162.638 37.154 163.349L37.8811 164.58C38.8107 164.133 39.7508 164.364 40.5576 165.137C41.7655 166.293 41.8512 167.871 40.5257 169.352L35.6634 164.697L35.2459 165.133C32.858 167.627 33.5224 169.901 34.9179 171.237C36.732 172.974 39.3048 172.696 41.2753 170.637C43.2458 168.579 43.3788 166.066 41.4426 164.212ZM39.674 170.241C38.6065 171.217 36.9803 171.44 35.8029 170.313C34.6865 169.244 34.7729 167.722 35.8583 166.588L39.674 170.241Z" fill="#EAEAEA"></path> <path d="M4.53276 89.0133L4.6833 87.5723C2.82109 87.4445 1.25533 89.0108 1.00693 91.3885C0.761042 93.7422 1.93681 95.7345 4.00228 95.9503C5.65945 96.1234 6.7696 95.0254 7.52272 93.1618L8.1131 91.6939C8.60885 90.4346 9.18561 89.3295 10.4105 89.4574C11.7554 89.5979 12.5086 90.9877 12.3304 92.6929C12.1774 94.1579 11.3934 95.3871 9.98788 95.3617L9.8273 96.8988C11.8598 96.9654 13.3994 95.4753 13.6754 92.8334C13.9714 89.9994 12.5785 88.2272 10.585 88.0189C8.2794 87.778 7.30655 89.8858 6.83733 91.1236L6.37062 92.3373C6.0351 93.2249 5.40171 94.6397 4.08077 94.5017C2.90394 94.3788 2.15223 93.2077 2.32285 91.5746C2.47842 90.0855 3.30484 89.0307 4.53276 89.0133Z" fill="#EAEAEA"></path> <path d="M15.1906 81.3326C15.6594 79.3343 14.7458 77.731 13.2023 77.1208L12.8769 78.5079C13.8036 78.9981 14.1983 79.9588 13.9446 81.0403C13.5586 82.6859 11.9468 83.424 9.85447 82.9331C7.80915 82.4532 6.72282 81.0574 7.10338 79.4353C7.39018 78.2128 8.31346 77.6605 9.18593 77.642L9.51134 76.2549C7.76351 76.0929 6.29861 77.2622 5.85187 79.1665C5.27827 81.6115 6.82548 83.6859 9.57608 84.3312C12.2797 84.9654 14.595 83.8716 15.1906 81.3326Z" fill="#EAEAEA"></path> <path d="M16.5817 74.5144L17.0368 73.1643L11.4763 71.29C10.2864 70.8889 9.73313 69.6576 10.1651 68.3761C10.2866 68.0157 10.4806 67.667 10.5343 67.5832L9.16134 67.1204C9.09783 67.271 8.96683 67.6218 8.89934 67.8221C8.54452 68.8747 8.83093 69.9905 9.59248 70.604L9.56163 70.6955L8.23443 70.2481L7.79477 71.5524L16.5817 74.5144Z" fill="#EAEAEA"></path> <path d="M20.6516 63.7494C21.7407 61.4864 20.7548 59.136 18.1655 57.8898C15.5544 56.6332 13.1024 57.329 12.0133 59.5919C10.9242 61.8549 11.9101 64.2053 14.5212 65.4619C17.1105 66.7081 19.5625 66.0123 20.6516 63.7494ZM19.4984 63.1943C18.6711 64.9133 16.8145 64.9845 15.139 64.1782C13.4636 63.3718 12.3392 61.8659 13.1665 60.147C13.9938 58.428 15.8722 58.3673 17.5476 59.1736C19.223 59.98 20.3256 61.4754 19.4984 63.1943Z" fill="#EAEAEA"></path> <path d="M13.9658 49.1748L13.2502 50.4068L23.9412 56.6167L24.6568 55.3847L13.9658 49.1748Z" fill="#EAEAEA"></path> <path d="M17.2127 43.8245L16.4216 45.0094L26.7043 51.8743L27.4954 50.6893L17.2127 43.8245Z" fill="#EAEAEA"></path> <path d="M35.6114 40.2049C36.8518 38.9186 36.4712 37.713 36.3241 37.135L36.4414 37.0133L37.467 38.0023L38.4224 37.0115L29.5227 28.4293L28.5337 29.4549L31.819 32.6229L31.7352 32.7098C31.1696 32.6006 29.9845 32.2293 28.7273 33.533C27.1014 35.2191 27.3168 37.6744 29.4201 39.7026C31.5407 41.7475 34.0022 41.8736 35.6114 40.2049ZM34.8242 39.1774C33.5838 40.4637 31.817 40.0347 30.3917 38.6602C28.9837 37.3025 28.5088 35.6034 29.7659 34.2997C30.9728 33.0482 32.6179 33.3598 34.1128 34.8014C35.6251 36.2597 36.0143 37.9433 34.8242 39.1774Z" fill="#EAEAEA"></path> <path d="M44.3213 31.6444C46.2913 30.0868 46.4341 27.542 44.6519 25.2878C42.8546 23.0148 40.3455 22.5667 38.3755 24.1243C36.4055 25.6819 36.2628 28.2267 38.06 30.4998C39.8422 32.7539 42.3514 33.202 44.3213 31.6444ZM43.5276 30.6404C42.0311 31.8236 40.3308 31.0747 39.1776 29.6161C38.0244 28.1576 37.6729 26.3114 39.1693 25.1282C40.6657 23.9451 42.3811 24.7129 43.5343 26.1715C44.6875 27.63 45.024 29.4573 43.5276 30.6404Z" fill="#EAEAEA"></path> <path d="M52.4491 24.9047L53.6754 24.2282L52.0107 17.011L52.1376 16.941L57.3545 22.1988L58.5808 21.5223L56.5758 12.0383L55.2649 12.7614L56.9274 19.9247L56.8428 19.9714L51.7127 14.721L50.3806 15.4558L52.0759 22.6285L51.9914 22.6752L46.8073 17.4269L45.4963 18.1501L52.4491 24.9047Z" fill="#EAEAEA"></path> <path d="M62.9877 12.8909C62.4023 11.3826 63.0045 10.1646 64.2765 9.67095C65.509 9.19259 66.5698 9.70688 67.0962 11.0632L69.1931 16.466L70.5213 15.9505L68.3895 10.4577C67.5333 8.25153 65.9464 7.64999 64.1961 8.3293C62.8904 8.83605 62.3072 9.73589 62.2427 10.7711L62.1301 10.8148L61.6059 9.46409L60.3227 9.96211L63.6778 18.6066L65.006 18.0911L62.9877 12.8909Z" fill="#EAEAEA"></path> <path d="M80.783 3.25697L78.8485 3.6798L78.3741 1.50945L76.9823 1.81369L77.4567 3.98403L76.0884 4.28311L76.3462 5.46265L77.7145 5.16357L78.9521 10.8254C79.2975 12.4059 80.7364 12.8824 81.916 12.6246C82.435 12.5111 82.7446 12.3446 82.9179 12.2325L82.3615 11.0441C82.2487 11.0935 82.0703 11.1819 81.7636 11.2489C81.1503 11.383 80.5192 11.3232 80.2614 10.1437L79.1064 4.85934L81.0408 4.43651L80.783 3.25697Z" fill="#EAEAEA"></path> <path d="M90.28 11.1223C92.7815 10.8998 94.2962 8.84994 94.0417 5.98766C93.785 3.10132 91.9323 1.35089 89.4308 1.57335C86.9293 1.79582 85.4146 3.84573 85.6713 6.73206C85.9258 9.59435 87.7785 11.3448 90.28 11.1223ZM90.1666 9.84752C88.2665 10.0165 87.2551 8.45792 87.0904 6.60586C86.9257 4.75379 87.644 3.01714 89.5442 2.84815C91.4443 2.67916 92.4578 4.2618 92.6225 6.11387C92.7873 7.96593 92.0668 9.67853 90.1666 9.84752Z" fill="#EAEAEA"></path> <path d="M107.983 10.6164C109.857 10.8049 111.321 10.0056 111.893 8.65558L110.563 8.1334C110.105 9.05821 109.222 9.45477 108.111 9.34299C106.447 9.17564 105.408 7.98506 105.541 6.00223L112.238 6.67588L112.299 6.07522C112.644 2.63943 110.72 1.25671 108.798 1.06338C106.299 0.812045 104.443 2.61547 104.158 5.45059C103.873 8.28572 105.316 10.3481 107.983 10.6164ZM105.664 4.77688C105.905 3.35096 107.048 2.17366 108.67 2.33678C110.208 2.49145 111.077 3.74381 110.92 5.30553L105.664 4.77688Z" fill="#EAEAEA"></path> <path d="M118.06 2.16465L116.458 1.80179L118.307 6.97455L114.409 10.8453L116.011 11.2081L118.972 8.19L120.344 12.19L121.945 12.5529L120.05 7.36942L123.994 3.50936L122.393 3.1465L119.389 6.35304L118.06 2.16465Z" fill="#EAEAEA"></path> <path d="M124.489 16.4551L125.825 16.9506L127.53 12.3546L127.643 12.3966C127.761 12.9812 127.94 14.2327 129.616 14.8541C131.789 15.6604 133.953 14.4798 134.978 11.7177C135.994 8.97818 135.123 6.6722 132.927 5.85756C131.229 5.22768 130.322 6.07597 129.86 6.4196L129.702 6.36081L130.214 4.97975L128.923 4.50105L124.489 16.4551ZM128.624 9.33508C129.346 7.38802 130.694 6.39402 132.324 6.9987C134.022 7.62858 134.33 9.36565 133.65 11.1995C132.961 13.056 131.555 14.2085 129.88 13.587C128.272 12.9907 127.893 11.3048 128.624 9.33508Z" fill="#EAEAEA"></path> <path d="M142.913 6.6125L141.618 6.01862L136.464 17.2569L137.759 17.8508L142.913 6.6125Z" fill="#EAEAEA"></path> <path d="M145.018 21.6324C147.156 22.9492 149.596 22.2112 151.102 19.7644C152.622 17.297 152.183 14.7863 150.045 13.4694C147.906 12.1525 145.466 12.8905 143.947 15.3579C142.44 17.8048 142.879 20.3155 145.018 21.6324ZM145.689 20.5426C144.064 19.5423 144.185 17.6882 145.16 16.105C146.135 14.5218 147.749 13.5589 149.373 14.5592C150.998 15.5595 150.864 17.4341 149.889 19.0173C148.914 20.6006 147.313 21.5429 145.689 20.5426Z" fill="#EAEAEA"></path> <path d="M151.833 25.6124L152.97 26.4713L156.508 21.7899C157.265 20.7881 158.608 20.6529 159.687 21.4682C159.99 21.6975 160.26 21.9919 160.322 22.0694L161.196 20.9135C161.073 20.8056 160.782 20.5703 160.613 20.4429C159.727 19.7732 158.578 19.6917 157.755 20.22L157.678 20.1617L158.522 19.0444L157.424 18.2145L151.833 25.6124Z" fill="#EAEAEA"></path> <path d="M160.884 33.0436C162.244 34.3461 163.89 34.6176 165.172 33.9065L164.445 32.6756C163.515 33.1228 162.575 32.8914 161.769 32.1191C160.561 30.9627 160.475 29.3848 161.801 27.9041L166.663 32.5589L167.08 32.1228C169.468 29.6285 168.804 27.3544 167.408 26.0185C165.594 24.2818 163.021 24.5599 161.051 26.6182C159.08 28.6765 158.947 31.19 160.884 33.0436ZM162.652 27.0145C163.72 26.0391 165.346 25.8158 166.523 26.943C167.64 28.0117 167.553 29.5336 166.468 30.6674L162.652 27.0145Z" fill="#EAEAEA"></path> </svg> 